<svg width="1600" height="900" viewBox="0 0 1600 900" fill="none" xmlns="http://www.w3.org/2000/svg">
  <rect width="1600" height="900" fill="#0F1725"/>
  <rect x="80" y="84" width="1440" height="732" stroke="#314760" stroke-width="2"/>
  <rect x="142" y="148" width="1316" height="604" fill="#141F2E" stroke="#344C69" stroke-width="2"/>
  <rect x="190" y="198" width="1220" height="56" fill="#1A2A40"/>
  <rect x="220" y="218" width="180" height="16" fill="#2D415F"/>
  <rect x="424" y="218" width="140" height="16" fill="#25374F"/>
  <rect x="586" y="218" width="140" height="16" fill="#25374F"/>
  <rect x="748" y="218" width="140" height="16" fill="#25374F"/>
  <rect x="910" y="218" width="140" height="16" fill="#25374F"/>
  <rect x="190" y="286" width="344" height="418" fill="#111A28" stroke="#2F4360" stroke-width="2"/>
  <rect x="558" y="286" width="516" height="418" fill="#132239" stroke="#3A5578" stroke-width="2"/>
  <rect x="1098" y="286" width="312" height="418" fill="#111A28" stroke="#2F4360" stroke-width="2"/>
  <rect x="228" y="330" width="268" height="14" fill="#27394F"/>
  <rect x="228" y="358" width="230" height="10" fill="#223248"/>
  <rect x="228" y="382" width="250" height="10" fill="#223248"/>
  <circle cx="816" cy="494" r="140" fill="#1A3454"/>
  <circle cx="816" cy="494" r="84" fill="#244A78"/>
  <rect x="1138" y="330" width="236" height="120" fill="#1B2D46"/>
  <rect x="1138" y="470" width="236" height="120" fill="#1B2D46"/>
  <rect x="1138" y="610" width="236" height="56" fill="#274B78"/>
</svg>
