<svg width="1600" height="900" viewBox="0 0 1600 900" fill="none" xmlns="http://www.w3.org/2000/svg">
  <rect width="1600" height="900" fill="#0E1624"/>
  <rect x="86" y="80" width="1428" height="740" stroke="#2E405E" stroke-width="2"/>
  <rect x="140" y="160" width="980" height="560" fill="#121E31" stroke="#324764" stroke-width="2"/>
  <rect x="180" y="220" width="260" height="28" fill="#2A3A53"/>
  <rect x="180" y="268" width="620" height="14" fill="#22344F"/>
  <rect x="180" y="296" width="560" height="14" fill="#22344F"/>
  <rect x="180" y="360" width="430" height="250" fill="#1A2A41" stroke="#385073" stroke-width="2"/>
  <rect x="640" y="360" width="430" height="250" fill="#18263A" stroke="#385073" stroke-width="2"/>
  <rect x="1160" y="160" width="300" height="560" fill="#111B2C" stroke="#324764" stroke-width="2"/>
  <rect x="1200" y="220" width="220" height="16" fill="#2B3D58"/>
  <rect x="1200" y="262" width="180" height="10" fill="#22344F"/>
  <rect x="1200" y="286" width="190" height="10" fill="#22344F"/>
  <rect x="1200" y="332" width="220" height="130" fill="#1C2D45"/>
  <rect x="1200" y="486" width="220" height="130" fill="#1C2D45"/>
  <path d="M280 560L350 500L430 535L510 455L590 520" stroke="#65A5FF" stroke-width="6" fill="none"/>
  <circle cx="350" cy="500" r="9" fill="#65A5FF"/>
  <circle cx="430" cy="535" r="9" fill="#65A5FF"/>
  <circle cx="510" cy="455" r="9" fill="#65A5FF"/>
  <circle cx="590" cy="520" r="9" fill="#65A5FF"/>
</svg>
