<svg width="128" height="128" viewBox="0 0 128 128" fill="none" xmlns="http://www.w3.org/2000/svg">
  <defs>
    <linearGradient id="rocketCore" x1="28" y1="16" x2="96" y2="108" gradientUnits="userSpaceOnUse">
      <stop stop-color="#FFB347"/>
      <stop offset="0.55" stop-color="#FF5E3A"/>
      <stop offset="1" stop-color="#7A4DFF"/>
    </linearGradient>
    <linearGradient id="rocketFlame" x1="48" y1="92" x2="80" y2="124" gradientUnits="userSpaceOnUse">
      <stop stop-color="#FFD85A"/>
      <stop offset="1" stop-color="#FF6D33"/>
    </linearGradient>
  </defs>

  <rect x="8" y="8" width="112" height="112" rx="24" fill="#101A2B"/>
  <rect x="8.75" y="8.75" width="110.5" height="110.5" rx="23.25" stroke="#325378" stroke-opacity="0.8" stroke-width="1.5"/>

  <path d="M64 20C73.8 30.8 80 44.3 80 58V70.4C80 80.6 72.2 88 62.6 88H65.4C55.8 88 48 80.6 48 70.4V58C48 44.3 54.2 30.8 64 20Z" fill="url(#rocketCore)"/>
  <path d="M48 61.6L36 72.2V56.4L48 48V61.6Z" fill="#4B6EFF"/>
  <path d="M80 61.6L92 72.2V56.4L80 48V61.6Z" fill="#4B6EFF"/>
  <circle cx="64" cy="54" r="9" fill="#EAF5FF"/>
  <circle cx="64" cy="54" r="5" fill="#7BC2FF"/>

  <path d="M64 88L74.5 105.5C76.1 108.1 74.2 111.5 71.1 111.5H56.9C53.8 111.5 51.9 108.1 53.5 105.5L64 88Z" fill="url(#rocketFlame)"/>
  <path d="M64 93L69.4 102.2C70.3 103.8 69.1 105.8 67.3 105.8H60.7C58.9 105.8 57.7 103.8 58.6 102.2L64 93Z" fill="#FFEAB7"/>

  <path d="M24 100C31.3 96.6 36 95 42 95" stroke="#3CC6FF" stroke-width="2.4" stroke-linecap="round"/>
  <path d="M86 35C93.4 29.2 99.5 25.5 106 23" stroke="#FF8C5D" stroke-width="2.4" stroke-linecap="round"/>
</svg>
